<?xml version="1.0" encoding="UTF-8" standalone="no"?>
<!-- Created with Inkscape (http://www.inkscape.org/) -->

<svg
   xmlns:dc="http://purl.org/dc/elements/1.1/"
   xmlns:cc="http://creativecommons.org/ns#"
   xmlns:rdf="http://www.w3.org/1999/02/22-rdf-syntax-ns#"
   xmlns:svg="http://www.w3.org/2000/svg"
   xmlns="http://www.w3.org/2000/svg"
   xmlns:sodipodi="http://sodipodi.sourceforge.net/DTD/sodipodi-0.dtd"
   xmlns:inkscape="http://www.inkscape.org/namespaces/inkscape"
   width="36.525597mm"
   height="36.525597mm"
   viewBox="0 0 36.525597 36.525597"
   version="1.1"
   id="svg6033"
   inkscape:version="0.92.4 (unknown)"
   sodipodi:docname="logo_small.svg">
  <defs
     id="defs6027">
    <clipPath
       clipPathUnits="userSpaceOnUse"
       id="clipPath178-7-9">
      <path
         d="M 0,500 H 500 V 0 H 0 Z"
         id="path176-5-1"
         inkscape:connector-curvature="0" />
    </clipPath>
  </defs>
  <sodipodi:namedview
     id="base"
     pagecolor="#ffffff"
     bordercolor="#666666"
     borderopacity="1.0"
     inkscape:pageopacity="0.0"
     inkscape:pageshadow="2"
     inkscape:zoom="4.0275409"
     inkscape:cx="69.02475"
     inkscape:cy="69.02475"
     inkscape:document-units="mm"
     inkscape:current-layer="layer1"
     showgrid="false"
     inkscape:window-width="1368"
     inkscape:window-height="744"
     inkscape:window-x="0"
     inkscape:window-y="0"
     inkscape:window-maximized="1" />
  <metadata
     id="metadata6030">
    <rdf:RDF>
      <cc:Work
         rdf:about="">
        <dc:format>image/svg+xml</dc:format>
        <dc:type
           rdf:resource="http://purl.org/dc/dcmitype/StillImage" />
        <dc:title></dc:title>
      </cc:Work>
    </rdf:RDF>
  </metadata>
  <g
     inkscape:label="Layer 1"
     inkscape:groupmode="layer"
     id="layer1"
     transform="translate(168.69732,-51.195534)">
    <g
       id="g6008"
       transform="matrix(0.35277777,0,0,-0.35277777,-454.44581,224.73738)">
      <g
         transform="matrix(0.61390985,0,0,0.61390985,636.82737,220.39125)"
         id="g172-3-2">
        <g
           clip-path="url(#clipPath178-7-9)"
           id="g174-5-7">
          <g
             transform="translate(450.7266,357.9839)"
             id="g180-6-0">
            <path
               inkscape:connector-curvature="0"
               id="path182-2-9"
               style="fill:#000000;fill-opacity:1;fill-rule:nonzero;stroke:none"
               d="m 0,0 c 0,-46.572 -37.754,-84.326 -84.326,-84.326 -46.572,0 -84.326,37.754 -84.326,84.326 0,46.572 37.754,84.326 84.326,84.326 C -37.754,84.326 0,46.572 0,0" />
          </g>
        </g>
      </g>
      <ellipse
         ry="42.73164"
         rx="42.477283"
         transform="scale(1,-1)"
         cy="-440.14615"
         cx="861.7605"
         id="path6000"
         style="fill:#fcee21;fill-opacity:1;fill-rule:nonzero;stroke:none;stroke-width:2.04225349;stroke-miterlimit:4;stroke-dasharray:none;stroke-opacity:1" />
      <path
         d="m 871.35543,425.92021 q -0.80265,-2.47857 -1.48016,-5.33309 -0.73151,-3.05921 -3.64389,-7.02231 -2.45293,-4.48799 -9.18934,-3.68251 -3.10503,0.83442 -5.4151,2.27532 -2.2443,1.54882 -3.98055,3.46598 -1.67047,2.0251 -2.97635,4.29945 -1.31776,2.37115 -2.41441,4.87249 -1.04274,2.70604 -1.81038,5.74697 -0.76767,3.04095 -1.37999,6.10418 -0.61236,3.06325 -1.05754,6.052 -0.37936,3.09668 -0.71131,5.80628 -0.32012,2.61281 -0.35332,5.46378 0.0326,2.95886 0.60229,5.404 0.56967,2.44515 1.85542,4.20528 1.3634,1.7713 3.69308,2.10572 0.45051,-3.67731 1.2128,-6.02972 0.76234,-2.35239 1.67462,-3.99395 0.90043,-1.54478 1.83113,-2.69132 0.91877,-1.04979 1.78366,-2.30426 0.85303,-1.15769 1.52051,-2.73592 0.65561,-1.48145 0.95202,-3.90073 0.2371,-1.93542 -0.21817,-3.3794 -0.38947,-1.33607 -0.94609,-2.59764 -0.49082,-1.15367 -0.95794,-2.50087 -0.4013,-1.23929 -0.18791,-2.98117 0.2608,-2.12898 1.34027,-3.845 1.14528,-1.60812 2.63136,-2.77342 1.56379,-1.15412 3.21173,-1.70535 1.72558,-0.54007 3.04573,-0.35056 0.62124,0.0891 1.68589,1.71911 1.1423,1.64108 2.41088,4.18652 1.26852,2.54547 2.56733,5.48917 1.28693,3.04046 2.28698,5.8428 1.07767,2.81347 1.67104,5.06506 0.59342,2.25159 0.47487,3.2193 -0.0356,0.29032 -0.27921,1.63397 -0.24364,1.34365 -0.5359,1.79405 -3.16544,0.0381 -4.49092,0.53701 -0.68052,0.39467 -1.43871,0.7782 -0.77003,0.4803 -1.62958,1.04622 -1.71904,1.13185 -2.64203,4.15049 -0.92295,3.01865 -0.13092,6.87432 l 25.16015,3.61179 q 2.02257,-8.76918 0.68407,-9.45369 -1.19506,-0.56545 -2.28225,-0.72151 -1.7991,-1.43995 -2.42922,-4.68154 -0.55248,-3.23046 -0.41913,-7.54413 0.21104,-4.30251 0.83939,-9.4314 0.62833,-5.12888 1.2804,-10.45128 0.38594,-2.50491 0.61649,-5.03211 0.30824,-2.51606 0.53886,-5.04326 0.43746,-4.86085 -3.05821,-6.64281 -3.49566,-1.78195 -4.60294,2.09649 -0.48194,1.99875 -1.1192,3.97522 -0.57142,2.08436 -1.17312,3.7705 -0.61352,1.78292 -1.33495,3.15645 -0.64374,1.38469 -1.28219,2.08083 z"
         style="font-style:normal;font-variant:normal;font-weight:normal;font-stretch:normal;font-size:160px;line-height:1.25;font-family:'Homeworld Translator';-inkscape-font-specification:'Homeworld Translator';letter-spacing:0px;word-spacing:0px;fill:#01b000;fill-opacity:1;stroke:#000000;stroke-width:0.54654157;stroke-opacity:1"
         id="path5694-0"
         inkscape:connector-curvature="0" />
    </g>
  </g>
</svg>
